<mxfile host="app.diagrams.net" modified="2024-01-11T12:40:44.367Z" agent="Mozilla/5.0 (Windows NT 10.0; Win64; x64) AppleWebKit/537.36 (KHTML, like Gecko) Chrome/120.0.0.0 Safari/537.36" version="22.1.18" etag="tqYEYp_CT-f0PG0PS97z" type="github">
  <diagram name="Page-1" id="fLG7imfOWJXX0zvi1eW1">
    <mxGraphModel>
      <root>
        <mxCell id="0" />
        <mxCell id="1" parent="0" />
      </root>
    </mxGraphModel>
  </diagram>
</mxfile>
